<svg xmlns="http://www.w3.org/2000/svg" height="60.767" width="577.696" stroke-miterlimit="10" stroke-linecap="square" stroke="none" fill="none" xmlns:v="https://vecta.io/nano"><style><![CDATA[.B{fill-rule:evenodd}.C{fill-opacity:0}.D{fill:#000}.E{fill:#073763}.F{stroke-width:4}.G{stroke:#4285f4}.H{stroke-linecap:butt}.I{stroke-linejoin:round}.J{fill:#4285f4}]]></style><path d="M29.137 52.278l145.512-1.543" class="B C D"/><g class="F G"><path d="M44.296 52.118l115.193-1.222" class="H I"/><path d="M31.137 52.257a6.58 6.58 0 1 1 13.159-.14 6.58 6.58 0 1 1-13.159.14zm141.512-1.501a6.58 6.58 0 0 1-13.159.14 6.58 6.58 0 0 1 13.159-.14z" class="J"/></g><path d="M167.297 50.735l145.512-1.543" class="B C D"/><g class="F G"><path d="M167.297 50.735l130.353-1.383" class="H I"/><path d="M310.809 49.213a6.58 6.58 0 0 1-13.159.14 6.58 6.58 0 1 1 13.159-.14z" class="J"/></g><path d="M0 0h80.504v42.016H0z" class="B C D"/><path d="M9.641 25.264q.391.281 1.031.484.641.203 1.484.203.969 0 1.563-.328.594-.328.906-.984.328-.672.438-1.656.109-.984.109-2.312v-7h1.313v6.734q0 1.5-.156 2.734-.141 1.219-.578 2.125-.422.891-1.281 1.375-.859.484-2.281.484-.906 0-1.625-.203-.703-.203-1.297-.609zm8.793-1.141q0-.922.516-1.578.531-.656 1.453-1.016.922-.375 2.141-.375.703 0 1.469.109.766.109 1.375.344v-.828q0-1.234-.734-1.953-.734-.734-2.016-.734-.781 0-1.547.297-.75.281-1.562.844l-.484-.891q.953-.656 1.859-.984.922-.328 1.859-.328 1.797 0 2.844 1.031 1.047 1.031 1.047 2.828v4.5q0 .266.109.391.109.109.359.141v1q-.219.016-.375.031-.141.031-.203 0-.469-.016-.719-.297-.234-.281-.25-.594l-.031-.703q-.641.828-1.687 1.297-1.047.453-2.125.453-.937 0-1.703-.391-.75-.406-1.172-1.094-.422-.687-.422-1.5zm6.516.75q.203-.266.313-.5.125-.25.125-.437v-1.422q-.641-.234-1.328-.359-.672-.141-1.359-.141-1.375 0-2.219.547-.828.531-.828 1.469 0 .547.281 1.016.281.469.813.781.547.313 1.281.313.906 0 1.703-.359.797-.359 1.219-.906zm8.652 2.234q-1.062 0-1.953-.391-.875-.406-1.547-1.109-.656-.719-1.016-1.625-.359-.922-.359-1.953 0-1.375.609-2.516.609-1.141 1.703-1.812 1.109-.672 2.547-.672 1.359 0 2.406.625 1.047.625 1.547 1.688l-1.219.391q-.422-.734-1.156-1.156-.734-.422-1.625-.422-.969 0-1.781.5-.797.5-1.281 1.391-.469.875-.469 1.984 0 1.109.484 2 .484.891 1.281 1.422.813.531 1.781.531.625 0 1.219-.219.594-.219 1.031-.594.438-.391.578-.844l1.25.375q-.25.688-.859 1.25-.609.547-1.422.859-.812.297-1.75.297zm5.242-2.984q0-.922.516-1.578.531-.656 1.453-1.016.922-.375 2.141-.375.703 0 1.469.109.766.109 1.375.344v-.828q0-1.234-.734-1.953-.734-.734-2.016-.734-.781 0-1.547.297-.75.281-1.562.844l-.484-.891q.953-.656 1.859-.984.922-.328 1.859-.328 1.797 0 2.844 1.031 1.047 1.031 1.047 2.828v4.5q0 .266.109.391.109.109.359.141v1q-.219.016-.375.031-.141.031-.203 0-.469-.016-.719-.297-.234-.281-.25-.594l-.031-.703q-.641.828-1.687 1.297-1.047.453-2.125.453-.937 0-1.703-.391-.75-.406-1.172-1.094-.422-.687-.422-1.5zm6.516.75q.203-.266.313-.5.125-.25.125-.437v-1.422q-.641-.234-1.328-.359-.672-.141-1.359-.141-1.375 0-2.219.547-.828.531-.828 1.469 0 .547.281 1.016.281.469.813.781.547.313 1.281.313.906 0 1.703-.359.797-.359 1.219-.906zm9.293-6.547q-1.266.031-2.234.703-.953.672-1.344 1.844v6.047h-1.266v-9.719h1.188v2.328q.5-1.016 1.328-1.656.828-.641 1.766-.703.188-.031.328-.031.141 0 .234.031zm5.593 8.781q-1.047 0-1.937-.391-.891-.406-1.547-1.109-.656-.703-1.016-1.609-.359-.922-.359-1.969 0-1.359.625-2.5.625-1.141 1.719-1.812 1.094-.687 2.5-.687 1.438 0 2.5.703 1.078.688 1.688 1.813.625 1.125.625 2.469 0 .156 0 .297 0 .125-.016.203h-8.328q.094 1.047.594 1.859.5.813 1.281 1.297.797.469 1.734.469.953 0 1.797-.484.844-.484 1.188-1.266l1.094.297q-.297.688-.922 1.25-.609.563-1.437.875-.828.297-1.781.297zm-3.578-5.5h7.188q-.078-1.062-.578-1.859-.484-.812-1.281-1.266-.797-.469-1.75-.469-.953 0-1.734.469-.781.453-1.281 1.266-.484.813-.562 1.859zm10.342 5.313v-9.719h1.266v9.719zm1.047-11.562l-.828-.328 1.094-1.734h1.344z" class="E"/><path d="M89.919 0h153.984v42.016H89.919z" class="B C D"/><path d="M121.058 16.155q-.281-.312-.656-.562-.375-.25-.844-.437-.469-.187-1-.297-.531-.125-1.125-.125-1.734 0-2.547.672-.812.656-.812 1.797 0 .781.375 1.234.391.438 1.203.719.828.281 2.094.578 1.422.297 2.453.719 1.031.406 1.578 1.109.563.688.563 1.891 0 .906-.359 1.578-.344.672-.984 1.125-.625.453-1.516.672-.875.203-1.922.203-1.016 0-1.969-.203-.937-.219-1.781-.641-.828-.422-1.562-1.078l.656-1.062q.359.375.844.703.5.328 1.109.594.609.25 1.297.391.703.141 1.453.141 1.578 0 2.469-.578.891-.578.891-1.719 0-.812-.453-1.312-.453-.5-1.344-.812-.891-.312-2.203-.609-1.375-.328-2.328-.719-.953-.391-1.437-1.031-.469-.641-.469-1.703 0-1.234.609-2.078.609-.859 1.672-1.297 1.063-.437 2.438-.437.875 0 1.625.188.766.172 1.406.516.656.328 1.203.828zm2.527 7.969q0-.922.516-1.578.531-.656 1.453-1.016.922-.375 2.141-.375.703 0 1.469.109.766.109 1.375.344v-.828q0-1.234-.734-1.953-.734-.734-2.016-.734-.781 0-1.547.297-.75.281-1.562.844l-.484-.891q.953-.656 1.859-.984.922-.328 1.859-.328 1.797 0 2.844 1.031 1.047 1.031 1.047 2.828v4.5q0 .266.109.391.109.109.359.141v1q-.219.016-.375.031-.141.031-.203 0-.469-.016-.719-.297-.234-.281-.25-.594l-.031-.703q-.641.828-1.687 1.297-1.047.453-2.125.453-.937 0-1.703-.391-.75-.406-1.172-1.094-.422-.687-.422-1.5zm6.516.75q.203-.266.313-.5.125-.25.125-.437v-1.422q-.641-.234-1.328-.359-.672-.141-1.359-.141-1.375 0-2.219.547-.828.531-.828 1.469 0 .547.281 1.016.281.469.813.781.547.313 1.281.313.906 0 1.703-.359.797-.359 1.219-.906zm-1.078-9.859q-.562 0-.953-.187-.391-.187-.719-.375-.312-.187-.719-.187-.406 0-.609.203-.187.203-.266.422-.062.219-.062.281h-.781q0-.094.063-.375.078-.281.25-.578.188-.312.516-.547.328-.234.875-.234.516 0 .875.203.375.188.719.391.344.188.797.188.484 0 .703-.219.219-.219.281-.437.078-.219.078-.266h.781q0 .094-.078.375-.078.266-.281.594-.187.313-.547.531-.359.219-.922.219zm9.668 12.094q-1.047 0-1.937-.391-.891-.406-1.531-1.109-.641-.703-1-1.609-.344-.906-.344-1.906 0-1.047.344-1.953.359-.906 1.016-1.594.656-.703 1.531-1.109.891-.406 1.938-.406 1.047 0 1.922.406.875.406 1.516 1.109.656.688 1.016 1.594.359.906.359 1.953 0 1-.359 1.906-.359.906-1 1.609-.641.703-1.531 1.109-.875.391-1.937.391zm-3.531-5q0 1.078.469 1.969.484.891 1.281 1.406.813.5 1.781.5.969 0 1.766-.516.797-.531 1.281-1.422.484-.906.484-1.969 0-1.094-.484-1.984-.484-.891-1.281-1.406-.797-.531-1.766-.531-.969 0-1.766.547-.797.531-1.281 1.422-.484.891-.484 1.984zm23.248-5.953q-.281-.312-.656-.562-.375-.25-.844-.437-.469-.187-1-.297-.531-.125-1.125-.125-1.734 0-2.547.672-.812.656-.812 1.797 0 .781.375 1.234.391.438 1.203.719.828.281 2.094.578 1.422.297 2.453.719 1.031.406 1.578 1.109.563.688.563 1.891 0 .906-.359 1.578-.344.672-.984 1.125-.625.453-1.516.672-.875.203-1.922.203-1.016 0-1.969-.203-.937-.219-1.781-.641-.828-.422-1.562-1.078l.656-1.062q.359.375.844.703.5.328 1.109.594.609.25 1.297.391.703.141 1.453.141 1.578 0 2.469-.578.891-.578.891-1.719 0-.812-.453-1.312-.453-.5-1.344-.812-.891-.312-2.203-.609-1.375-.328-2.328-.719-.953-.391-1.437-1.031-.469-.641-.469-1.703 0-1.234.609-2.078.609-.859 1.672-1.297 1.063-.437 2.438-.437.875 0 1.625.188.766.172 1.406.516.656.328 1.203.828zm3.324 10.766v-9.719h1.266v9.719zm0-11.75v-1.875h1.266v1.875zm4.114-1.875h1.266v11.422q0 .734.266.953.266.219.641.219.328 0 .656-.062.344-.078.594-.156l.219 1.031q-.359.141-.875.234-.5.094-.875.094-.859 0-1.375-.5-.516-.5-.516-1.375zm7.601 13.625l-3.937-9.719h1.313l3.328 8.453 3.344-8.453h1.25l-3.937 9.719zm10.905.188q-1.047 0-1.937-.391-.891-.406-1.547-1.109-.656-.703-1.016-1.609-.359-.922-.359-1.969 0-1.359.625-2.5.625-1.141 1.719-1.812 1.094-.687 2.5-.687 1.438 0 2.5.703 1.078.688 1.688 1.813.625 1.125.625 2.469 0 .156 0 .297 0 .125-.016.203h-8.328q.094 1.047.594 1.859.5.813 1.281 1.297.797.469 1.734.469.953 0 1.797-.484.844-.484 1.188-1.266l1.094.297q-.297.688-.922 1.25-.609.563-1.437.875-.828.297-1.781.297zm-3.578-5.5h7.188q-.078-1.062-.578-1.859-.484-.812-1.281-1.266-.797-.469-1.75-.469-.953 0-1.734.469-.781.453-1.281 1.266-.484.813-.562 1.859zm13.529 5.5q-1.203 0-2.234-.391-1.016-.391-1.766-1.203l.531-.891q.813.766 1.641 1.109.828.344 1.766.344 1.141 0 1.844-.453.719-.453.719-1.312 0-.578-.344-.891-.344-.312-1-.5-.641-.203-1.531-.422-1.016-.281-1.703-.578-.672-.312-1.016-.781-.344-.484-.344-1.25 0-.953.469-1.578.484-.625 1.313-.953.828-.328 1.859-.328 1.109 0 1.969.359.859.359 1.406.984l-.609.859q-.531-.594-1.25-.875-.719-.297-1.594-.297-.594 0-1.141.156-.531.156-.891.531-.344.359-.344.984 0 .531.266.828.266.281.781.484.531.188 1.297.406 1.094.297 1.906.609.828.313 1.281.797.453.484.453 1.359 0 1.359-1.031 2.125-1.031.766-2.703.766zm10.48-.656q-.156.063-.469.219-.312.141-.766.25-.437.109-.969.109-.531 0-1.016-.203-.469-.203-.75-.625-.281-.422-.281-1.031v-6.969h-1.344v-1h1.344V13.92h1.266v3.281h2.234v1h-2.234v6.609q.031.531.375.797.359.25.797.25.531 0 .953-.172.438-.187.531-.266zm6.437-8.125q-1.266.031-2.234.703-.953.672-1.344 1.844v6.047h-1.266v-9.719h1.188v2.328q.5-1.016 1.328-1.656.828-.641 1.766-.703.188-.031.328-.031.141 0 .234.031zm5.593 8.781q-1.047 0-1.937-.391-.891-.406-1.547-1.109-.656-.703-1.016-1.609-.359-.922-.359-1.969 0-1.359.625-2.5.625-1.141 1.719-1.812 1.094-.687 2.5-.687 1.438 0 2.5.703 1.078.688 1.688 1.813.625 1.125.625 2.469 0 .156 0 .297 0 .125-.016.203h-8.328q.094 1.047.594 1.859.5.813 1.281 1.297.797.469 1.734.469.953 0 1.797-.484.844-.484 1.188-1.266l1.094.297q-.297.688-.922 1.25-.609.563-1.437.875-.828.297-1.781.297zm-3.578-5.5h7.188q-.078-1.062-.578-1.859-.484-.812-1.281-1.266-.797-.469-1.75-.469-.953 0-1.734.469-.781.453-1.281 1.266-.484.813-.562 1.859z" class="E"/><path d="M228.082 0h153.984v42.016H228.082z" class="B C D"/><path d="M264.158 27.014q-1.328 0-2.469-.562-1.141-.578-1.984-1.547-.828-.969-1.297-2.156-.453-1.203-.453-2.469 0-1.344.453-2.547.469-1.203 1.281-2.125.828-.937 1.938-1.484 1.125-.547 2.453-.547 1.953 0 3.188.813 1.234.797 1.859 2.078l-1 .672q-.641-1.219-1.703-1.797-1.062-.578-2.359-.578-1.109 0-2 .469-.875.453-1.516 1.25-.625.781-.953 1.766-.328.984-.328 2.047 0 1.125.359 2.125.375 1 1.063 1.781.703.766 1.609 1.203.906.438 1.953.438 1.203 0 2.281-.609 1.094-.609 2.078-1.875v1.375q-1.891 2.281-4.453 2.281zm4.25-5.594h-2.953v-1.016h4.047v6.516h-1.094zm3.436 1.484v-5.703h1.266v5.484q0 1.656.563 2.484.578.813 1.688.813.75 0 1.453-.312.703-.328 1.234-.937.547-.609.828-1.406v-6.125h1.266v8.188q0 .266.109.391.109.109.344.141v1q-.234.016-.359.016-.125.016-.25.016-.375-.031-.641-.281-.266-.266-.281-.641l-.047-1.312q-.625 1.125-1.719 1.766-1.094.625-2.359.625-1.531 0-2.312-1.062-.781-1.062-.781-3.141zm10.379 1.219q0-.922.516-1.578.531-.656 1.453-1.016.922-.375 2.141-.375.703 0 1.469.109.766.109 1.375.344v-.828q0-1.234-.734-1.953-.734-.734-2.016-.734-.781 0-1.547.297-.75.281-1.562.844l-.484-.891q.953-.656 1.859-.984.922-.328 1.859-.328 1.797 0 2.844 1.031 1.047 1.031 1.047 2.828v4.5q0 .266.109.391.109.109.359.141v1q-.219.016-.375.031-.141.031-.203 0-.469-.016-.719-.297-.234-.281-.25-.594l-.031-.703q-.641.828-1.687 1.297-1.047.453-2.125.453-.937 0-1.703-.391-.75-.406-1.172-1.094-.422-.687-.422-1.5zm6.516.75q.203-.266.313-.5.125-.25.125-.437v-1.422q-.641-.234-1.328-.359-.672-.141-1.359-.141-1.375 0-2.219.547-.828.531-.828 1.469 0 .547.281 1.016.281.469.813.781.547.313 1.281.313.906 0 1.703-.359.797-.359 1.219-.906zm9.293-6.547q-1.266.031-2.234.703-.953.672-1.344 1.844v6.047h-1.266v-9.719h1.188v2.328q.5-1.016 1.328-1.656.828-.641 1.766-.703.188-.031.328-.031.141 0 .234.031zm.87 5.797q0-.922.516-1.578.531-.656 1.453-1.016.922-.375 2.141-.375.703 0 1.469.109.766.109 1.375.344v-.828q0-1.234-.734-1.953-.734-.734-2.016-.734-.781 0-1.547.297-.75.281-1.562.844l-.484-.891q.953-.656 1.859-.984.922-.328 1.859-.328 1.797 0 2.844 1.031 1.047 1.031 1.047 2.828v4.5q0 .266.109.391.109.109.359.141v1q-.219.016-.375.031-.141.031-.203 0-.469-.016-.719-.297-.234-.281-.25-.594l-.031-.703q-.641.828-1.687 1.297-1.047.453-2.125.453-.937 0-1.703-.391-.75-.406-1.172-1.094-.422-.687-.422-1.5zm6.516.75q.203-.266.313-.5.125-.25.125-.437v-1.422q-.641-.234-1.328-.359-.672-.141-1.359-.141-1.375 0-2.219.547-.828.531-.828 1.469 0 .547.281 1.016.281.469.813.781.547.313 1.281.313.906 0 1.703-.359.797-.359 1.219-.906zm9.293-6.547q-1.266.031-2.234.703-.953.672-1.344 1.844v6.047h-1.266v-9.719h1.188v2.328q.5-1.016 1.328-1.656.828-.641 1.766-.703.188-.031.328-.031.141 0 .234.031zm5.593 8.781q-1.047 0-1.937-.391-.891-.406-1.547-1.109-.656-.703-1.016-1.609-.359-.922-.359-1.969 0-1.359.625-2.5.625-1.141 1.719-1.812 1.094-.687 2.5-.687 1.437 0 2.5.703 1.078.688 1.688 1.813.625 1.125.625 2.469 0 .156 0 .297 0 .125-.016.203h-8.328q.094 1.047.594 1.859.5.813 1.281 1.297.797.469 1.734.469.953 0 1.797-.484.844-.484 1.188-1.266l1.094.297q-.297.688-.922 1.25-.609.563-1.437.875-.828.297-1.781.297zm-3.578-5.5h7.187q-.078-1.062-.578-1.859-.484-.812-1.281-1.266-.797-.469-1.75-.469-.953 0-1.734.469-.781.453-1.281 1.266-.484.813-.562 1.859zm24.795 5.313h-1.266v-5.422q0-1.703-.547-2.5-.547-.812-1.609-.812-1.094 0-1.969.797-.859.781-1.219 2v5.938h-1.266v-5.422q0-1.719-.531-2.516-.516-.797-1.594-.797-1.078 0-1.969.766-.875.766-1.219 2.016v5.953h-1.266v-9.719h1.156v2.203q.609-1.141 1.563-1.75.969-.625 2.141-.625 1.219 0 1.953.703.75.688.922 1.797.672-1.234 1.609-1.859.953-.641 2.141-.641.828 0 1.391.297.563.297.906.859.359.547.516 1.328.156.766.156 1.719zm1.895-2.797q0-.922.516-1.578.531-.656 1.453-1.016.922-.375 2.141-.375.703 0 1.469.109.766.109 1.375.344v-.828q0-1.234-.734-1.953-.734-.734-2.016-.734-.781 0-1.547.297-.75.281-1.562.844l-.484-.891q.953-.656 1.859-.984.922-.328 1.859-.328 1.797 0 2.844 1.031 1.047 1.031 1.047 2.828v4.5q0 .266.109.391.109.109.359.141v1q-.219.016-.375.031-.141.031-.203 0-.469-.016-.719-.297-.234-.281-.25-.594l-.031-.703q-.641.828-1.687 1.297-1.047.453-2.125.453-.937 0-1.703-.391-.75-.406-1.172-1.094-.422-.687-.422-1.5zm6.516.75q.203-.266.313-.5.125-.25.125-.437v-1.422q-.641-.234-1.328-.359-.672-.141-1.359-.141-1.375 0-2.219.547-.828.531-.828 1.469 0 .547.281 1.016.281.469.813.781.547.313 1.281.313.906 0 1.703-.359.797-.359 1.219-.906z" class="E"/><path d="M372.467 0h205.228v42.016H372.467z" class="B C D"/><path d="M417.187 26.92V16.139l-4.797 8.375h-.812l-4.812-8.375V26.92h-1.312V13.67h1.344l5.172 9.078 5.203-9.078h1.328v13.25zm8.368.188q-1.047 0-1.937-.391-.891-.406-1.531-1.109-.641-.703-1-1.609-.344-.906-.344-1.906 0-1.047.344-1.953.359-.906 1.016-1.594.656-.703 1.531-1.109.891-.406 1.938-.406 1.047 0 1.922.406.875.406 1.516 1.109.656.688 1.016 1.594.359.906.359 1.953 0 1-.359 1.906-.359.906-1 1.609-.641.703-1.531 1.109-.875.391-1.937.391zm-3.531-5q0 1.078.469 1.969.484.891 1.281 1.406.813.5 1.781.5.969 0 1.766-.516.797-.531 1.281-1.422.484-.906.484-1.969 0-1.094-.484-1.984-.484-.891-1.281-1.406-.797-.531-1.766-.531-.969 0-1.766.547-.797.531-1.281 1.422-.484.891-.484 1.984zm14.382 4.938q-.984 0-1.828-.406-.844-.406-1.453-1.109-.594-.703-.937-1.594-.328-.891-.328-1.844 0-1.031.328-1.937.328-.906.922-1.609.609-.703 1.422-1.109.828-.406 1.844-.406 1.25 0 2.172.641.922.625 1.563 1.563v-2.031h1.125v9.75q0 1.344-.641 2.266-.641.938-1.734 1.391-1.094.469-2.375.469-1.656 0-2.687-.594-1.031-.594-1.687-1.609l.797-.609q.578.906 1.531 1.359.969.453 2.047.453.953 0 1.734-.344.797-.344 1.266-1.047.484-.687.484-1.734V25.03q-.562.922-1.531 1.469-.969.547-2.031.547zm.359-1.062q.578 0 1.109-.203.531-.203.969-.547.453-.344.75-.766.297-.437.375-.891v-3q-.281-.703-.812-1.25-.516-.562-1.172-.859-.656-.312-1.375-.312-.812 0-1.469.344-.641.344-1.078.922-.437.563-.687 1.281-.234.703-.234 1.406 0 .781.281 1.484.281.703.766 1.25.5.547 1.156.844.672.297 1.422.297zm7.28.938v-9.719h1.266v9.719zm0-11.75v-1.875h1.266v1.875zm8.168 6.922q0-1.391.563-2.531.578-1.141 1.578-1.828 1.016-.703 2.297-.703 1.219 0 2.172.656.969.641 1.5 1.547v-5.937h1.266v12.094q0 .266.109.391.125.109.344.141v1q-.375.063-.578.031-.391-.016-.687-.312-.297-.297-.297-.656v-.953q-.578.953-1.578 1.516-.984.563-2.047.563-1 0-1.859-.406-.844-.422-1.469-1.125-.625-.703-.969-1.609-.344-.906-.344-1.875zm8.109 1.484v-3q-.234-.672-.781-1.219-.547-.547-1.234-.875-.672-.328-1.344-.328-.781 0-1.422.328-.625.328-1.094.891-.453.547-.703 1.266-.234.703-.234 1.453 0 .781.266 1.5.281.703.781 1.25.5.547 1.156.844.656.297 1.422.297.484 0 1-.187.531-.187 1-.5.484-.328.797-.781.313-.453.391-.937zm3.354.547q0-.922.516-1.578.531-.656 1.453-1.016.922-.375 2.141-.375.703 0 1.469.109.766.109 1.375.344v-.828q0-1.234-.734-1.953-.734-.734-2.016-.734-.781 0-1.547.297-.75.281-1.562.844l-.484-.891q.953-.656 1.859-.984.922-.328 1.859-.328 1.797 0 2.844 1.031 1.047 1.031 1.047 2.828v4.5q0 .266.109.391.109.109.359.141v1q-.219.016-.375.031-.141.031-.203 0-.469-.016-.719-.297-.234-.281-.25-.594l-.031-.703q-.641.828-1.687 1.297-1.047.453-2.125.453-.937 0-1.703-.391-.75-.406-1.172-1.094-.422-.687-.422-1.5zm6.516.75q.203-.266.313-.5.125-.25.125-.437v-1.422q-.641-.234-1.328-.359-.672-.141-1.359-.141-1.375 0-2.219.547-.828.531-.828 1.469 0 .547.281 1.016.281.469.813.781.547.313 1.281.313.906 0 1.703-.359.797-.359 1.219-.906zm7.636 2.234q-1.203 0-2.234-.391-1.016-.391-1.766-1.203l.531-.891q.813.766 1.641 1.109.828.344 1.766.344 1.141 0 1.844-.453.719-.453.719-1.312 0-.578-.344-.891-.344-.312-1-.5-.641-.203-1.531-.422-1.016-.281-1.703-.578-.672-.312-1.016-.781-.344-.484-.344-1.25 0-.953.469-1.578.484-.625 1.313-.953.828-.328 1.859-.328 1.109 0 1.969.359.859.359 1.406.984l-.609.859q-.531-.594-1.25-.875-.719-.297-1.594-.297-.594 0-1.141.156-.531.156-.891.531-.344.359-.344.984 0 .531.266.828.266.281.781.484.531.188 1.297.406 1.094.297 1.906.609.828.313 1.281.797.453.484.453 1.359 0 1.359-1.031 2.125-1.031.766-2.703.766zm9.956-6.906q0-1.203.422-2.375.422-1.172 1.219-2.125.813-.969 1.984-1.531 1.172-.578 2.672-.578 1.766 0 3.016.813 1.266.813 1.859 2.094l-1.016.625q-.437-.875-1.094-1.391-.641-.516-1.391-.734-.734-.219-1.453-.219-1.203 0-2.125.484-.906.469-1.531 1.266-.625.781-.937 1.766-.312.969-.312 1.984 0 1.094.359 2.109.375 1 1.047 1.781.672.766 1.578 1.234.906.453 1.969.453.75 0 1.531-.25.781-.266 1.469-.812.688-.547 1.094-1.406l1.078.563q-.406.984-1.266 1.688-.859.688-1.922 1.047-1.047.344-2.047.344-1.375 0-2.516-.578-1.125-.594-1.969-1.562-.828-.984-1.281-2.203-.437-1.234-.437-2.484zm18.267-1.875q-1.266.031-2.234.703-.953.672-1.344 1.844v6.047h-1.266v-9.719h1.188v2.328q.5-1.016 1.328-1.656.828-.641 1.766-.703.188-.031.328-.031.141 0 .234.031zm1.611 4.578v-5.703h1.266v5.484q0 1.656.563 2.484.578.813 1.688.813.75 0 1.453-.312.703-.328 1.234-.937.547-.609.828-1.406v-6.125h1.266v8.188q0 .266.109.391.109.109.344.141v1q-.234.016-.359.016-.125.016-.25.016-.375-.031-.641-.281-.266-.266-.281-.641l-.047-1.312q-.625 1.125-1.719 1.766-1.094.625-2.359.625-1.531 0-2.312-1.062-.781-1.062-.781-3.141zm10.347 3.156l6.516-7.906h-6.359v-.953h7.797v.859l-6.484 7.906h6.453v.953h-7.922zm13.989 1.047q-1.047 0-1.937-.391-.891-.406-1.547-1.109-.656-.703-1.016-1.609-.359-.922-.359-1.969 0-1.359.625-2.5.625-1.141 1.719-1.812 1.094-.687 2.5-.687 1.438 0 2.5.703 1.078.688 1.688 1.813.625 1.125.625 2.469 0 .156 0 .297 0 .125-.016.203h-8.328q.094 1.047.594 1.859.5.813 1.281 1.297.797.469 1.734.469.953 0 1.797-.484.844-.484 1.188-1.266l1.094.297q-.297.688-.922 1.25-.609.563-1.437.875-.828.297-1.781.297zm-3.578-5.5h7.188q-.078-1.062-.578-1.859-.484-.812-1.281-1.266-.797-.469-1.75-.469-.953 0-1.734.469-.781.453-1.281 1.266-.484.813-.562 1.859zm13.529 5.5q-1.203 0-2.234-.391-1.016-.391-1.766-1.203l.531-.891q.813.766 1.641 1.109.828.344 1.766.344 1.141 0 1.844-.453.719-.453.719-1.312 0-.578-.344-.891-.344-.312-1-.5-.641-.203-1.531-.422-1.016-.281-1.703-.578-.672-.312-1.016-.781-.344-.484-.344-1.25 0-.953.469-1.578.484-.625 1.313-.953.828-.328 1.859-.328 1.109 0 1.969.359.859.359 1.406.984l-.609.859q-.531-.594-1.25-.875-.719-.297-1.594-.297-.594 0-1.141.156-.531.156-.891.531-.344.359-.344.984 0 .531.266.828.266.281.781.484.531.188 1.297.406 1.094.297 1.906.609.828.313 1.281.797.453.484.453 1.359 0 1.359-1.031 2.125-1.031.766-2.703.766z" class="E"/><path d="M302.347 49.964h184.315" class="B C D"/><g class="F G"><path d="M302.347 49.964h169.155" class="H I"/><path d="M484.662 49.964a6.58 6.58 0 1 1-13.16 0 6.58 6.58 0 1 1 13.16 0z" class="J"/></g></svg>